<svg width="29.000000" height="28.999420" viewBox="0 0 29 28.9994" fill="none" xmlns="http://www.w3.org/2000/svg" xmlns:xlink="http://www.w3.org/1999/xlink">
	<desc>
			Created with Pixso.
	</desc>
	<defs/>
	<path d="M17.1567 14.4999L28.449 3.20755C29.1838 2.47304 29.1838 1.28542 28.449 0.550888C27.7144 -0.183624 26.5269 -0.183624 25.7922 0.550888L14.4998 11.8433L3.20776 0.550888C2.4729 -0.183624 1.28564 -0.183624 0.55127 0.550888C-0.183838 1.28542 -0.183838 2.47304 0.55127 3.20755L11.8433 14.4999L0.55127 25.7923C-0.183838 26.5268 -0.183838 27.7144 0.55127 28.449C0.917236 28.8154 1.39844 28.9994 1.87939 28.9994C2.36035 28.9994 2.84131 28.8154 3.20776 28.449L14.4998 17.1566L25.7922 28.449C26.1587 28.8154 26.6396 28.9994 27.1206 28.9994C27.6016 28.9994 28.0825 28.8154 28.449 28.449C29.1838 27.7144 29.1838 26.5268 28.449 25.7923L17.1567 14.4999Z" fill="#000000" fill-opacity="1.000000" fill-rule="nonzero"/>
</svg>
